<svg width="154" height="155" viewBox="0 0 154 155" fill="none" xmlns="http://www.w3.org/2000/svg">
<rect width="154" height="155" fill="#60312D"/>
<g clip-path="url(#clip0_3314_1514)">
<path d="M109.124 34H43.8729C37.878 34.0133 33.0194 38.8163 32.9985 44.75V109.25C32.9985 115.163 37.8913 120 43.8729 120H109.124C115.106 120 119.999 115.163 119.999 109.25V44.75C119.999 38.8375 115.106 34 109.124 34Z" fill="#E44332"/>
<path d="M51.3942 74.5822C52.9111 73.7067 85.4953 54.9886 86.2402 54.5549C86.985 54.1265 87.0256 52.8092 86.186 52.3326C85.3517 51.8587 83.7672 50.9591 83.1795 50.6137C82.3402 50.1573 81.3203 50.1695 80.4925 50.6458C80.0754 50.8868 52.2339 66.8712 51.3049 67.3959C50.1862 68.0278 48.813 68.0385 47.7025 67.3959L32.9976 58.8656V66.1161C36.5729 68.1992 45.476 73.372 47.632 74.5902C48.9186 75.3132 50.151 75.2971 51.397 74.5822" fill="white"/>
<path d="M51.3942 88.2907C52.9111 87.4152 85.4953 68.6971 86.2402 68.2634C86.985 67.835 87.0256 66.5177 86.186 66.0411C85.3517 65.5672 83.7672 64.6676 83.1795 64.3222C82.3402 63.8658 81.3203 63.878 80.4925 64.3543C80.0754 64.5953 52.2339 80.5797 51.3049 81.1044C50.1862 81.7363 48.813 81.747 47.7025 81.1044L32.9976 72.5741V79.8246C36.5729 81.9077 45.476 87.0805 47.632 88.2987C48.9186 89.0216 50.151 89.0056 51.397 88.2907" fill="white"/>
<path d="M51.3942 102.856C52.9111 101.981 85.4953 83.2626 86.2402 82.8288C86.985 82.4004 87.0256 81.0831 86.186 80.6065C85.3517 80.1326 83.7672 79.233 83.1795 78.8876C82.3402 78.4312 81.3203 78.4434 80.4925 78.9197C80.0754 79.1607 52.2339 95.1451 51.3049 95.6699C50.1862 96.3017 48.813 96.3124 47.7025 95.6699L32.9976 87.1395V94.39C36.5729 96.4731 45.476 101.646 47.632 102.864C48.9186 103.587 50.151 103.571 51.397 102.856" fill="white"/>
</g>
<defs>
<clipPath id="clip0_3314_1514">
<rect width="87" height="86" fill="white" transform="translate(33 34)"/>
</clipPath>
</defs>
</svg>
