<svg width="154" height="155" viewBox="0 0 154 155" fill="none" xmlns="http://www.w3.org/2000/svg">
<rect width="154" height="155" fill="#D39E00"/>
<g clip-path="url(#clip0_3314_1521)">
<path d="M100.158 54.8418L79.3163 52.5261L53.8425 54.8418L51.5264 77.9999L53.8421 101.158L77.0002 104.053L100.158 101.158L102.474 77.4213L100.158 54.8418Z" fill="white"/>
<path d="M63.3426 90.7715C61.6116 89.602 60.4131 87.8943 59.7588 85.6362L63.7769 83.9805C64.1416 85.37 64.7783 86.4467 65.6873 87.211C66.5907 87.9753 67.6907 88.3515 68.9759 88.3515C70.2902 88.3515 71.4192 87.952 72.3626 87.1529C73.3059 86.3539 73.7811 85.3348 73.7811 84.102C73.7811 82.84 73.2831 81.8091 72.2873 81.0105C71.2916 80.2119 70.0411 79.812 68.5473 79.812H66.2259V75.8348H68.3097C69.595 75.8348 70.6778 75.4876 71.5578 74.7929C72.4378 74.0981 72.8778 73.1486 72.8778 71.9386C72.8778 70.8619 72.484 70.0048 71.6969 69.3624C70.9097 68.72 69.9135 68.3957 68.7035 68.3957C67.5226 68.3957 66.5845 68.7086 65.8897 69.3395C65.195 69.9705 64.6912 70.7462 64.3731 71.661L60.3959 70.0052C60.9226 68.5114 61.8897 67.1914 63.3078 66.051C64.7264 64.9105 66.5383 64.3372 68.7383 64.3372C70.365 64.3372 71.8297 64.65 73.1269 65.281C74.4235 65.9119 75.4426 66.7862 76.1778 67.8976C76.9131 69.0148 77.2778 70.2657 77.2778 71.6548C77.2778 73.0734 76.9364 74.2715 76.2531 75.2558C75.5697 76.24 74.7302 76.9924 73.7345 77.5196V77.7567C75.0488 78.3067 76.1197 79.1462 76.965 80.2753C77.8045 81.4043 78.2269 82.7534 78.2269 84.3281C78.2269 85.9029 77.8274 87.3096 77.0283 88.5429C76.2293 89.7762 75.1236 90.7486 73.7226 91.4548C72.3159 92.161 70.7355 92.52 68.9812 92.52C66.9493 92.5258 65.0735 91.941 63.3426 90.7715Z" fill="#1A73E8"/>
<path d="M87.9996 70.8328L83.611 74.0228L81.4053 70.6766L89.3196 64.968H92.3534V91.8947H87.9996V70.8328Z" fill="#1A73E8"/>
<path d="M100.158 122L121 101.158L110.579 96.5266L100.158 101.158L95.5264 111.579L100.158 122Z" fill="#EA4335"/>
<path d="M49.2109 111.579L53.8424 122H100.158V101.158H53.8424L49.2109 111.579Z" fill="#34A853"/>
<path d="M39.9472 34C36.109 34 33 37.109 33 40.9472V101.158L43.421 105.789L53.8419 101.158V54.8419H100.158L104.789 44.421L100.158 34H39.9472Z" fill="#4285F4"/>
<path d="M33 101.158V115.053C33 118.892 36.109 122 39.9472 122H53.8419V101.158H33Z" fill="#188038"/>
<path d="M100.158 54.8419V101.158H121V54.8419L110.579 50.2104L100.158 54.8419Z" fill="#FBBC04"/>
<path d="M121 54.8419V40.9472C121 37.1086 117.891 34 114.053 34H100.158V54.8419H121Z" fill="#1967D2"/>
</g>
<defs>
<clipPath id="clip0_3314_1521">
<rect width="88" height="88" fill="white" transform="translate(33 34)"/>
</clipPath>
</defs>
</svg>
