<svg width="159" height="23" viewBox="0 0 159 23" fill="none" xmlns="http://www.w3.org/2000/svg">
<path d="M0 0H6V23H0V0Z" fill="#5F6175"/>
<path d="M11 0H16.7V8.625H24.3V0H30V23H24.3V14.375H16.7V23H11V0Z" fill="#5F6175"/>
<path d="M43.7773 17.1063V5.92065H46.2962V17.1063H43.7773Z" fill="#5F6175"/>
<path d="M48.9414 17.1063V5.92065H51.5324L54.4485 11.4819L55.5499 13.9556H55.6221C55.5679 13.3597 55.4957 12.7007 55.4235 11.9694C55.3513 11.2381 55.3152 10.543 55.3152 9.87491V5.92065H57.7166V17.1063H55.1256L52.2005 11.527L51.0991 9.08948H51.0269C51.081 9.70338 51.1533 10.3715 51.2255 11.0756C51.2977 11.7888 51.3338 12.475 51.3338 13.134V17.0973H48.9414V17.1063Z" fill="#5F6175"/>
<path d="M60.3438 17.1063V5.92065H63.5035C64.3612 5.92065 65.1376 6.02899 65.8237 6.24566C66.5099 6.46233 67.0967 6.79637 67.5932 7.24777C68.0807 7.69917 68.4599 8.27696 68.7217 8.97211C68.9835 9.66727 69.119 10.4978 69.119 11.4638C69.119 12.4208 68.9835 13.2604 68.7217 13.9646C68.4599 14.6778 68.0898 15.2556 67.6113 15.725C67.1328 16.1945 66.555 16.5376 65.8869 16.7633C65.2189 16.989 64.4695 17.1063 63.648 17.1063H60.3438ZM62.8716 15.057H63.3501C63.8286 15.057 64.2619 14.9938 64.6501 14.8674C65.0383 14.741 65.3723 14.5424 65.6432 14.2625C65.914 13.9826 66.1307 13.6125 66.2842 13.1521C66.4376 12.6916 66.5189 12.1319 66.5189 11.4548C66.5189 10.7958 66.4376 10.236 66.2842 9.78463C66.1307 9.33323 65.914 8.97211 65.6432 8.70127C65.3723 8.43043 65.0383 8.24085 64.6501 8.12348C64.2619 8.00612 63.8286 7.95195 63.3501 7.95195H62.8716V15.057Z" fill="#5F6175"/>
<path d="M71.2407 17.1063V5.92065H73.7595V17.1063H71.2407Z" fill="#5F6175"/>
<path d="M76.4048 17.1063V5.92065H83.4015V8.05126H78.9236V10.2992H82.7334V12.4118H78.9236V14.9848H83.573V17.1154H76.4048V17.1063Z" fill="#5F6175"/>
<path d="M89.2334 17.1063V5.92065H91.7522V10.227H95.6162V5.92065H98.153V17.1063H95.6162V12.4389H91.7522V17.1063H89.2334Z" fill="#5F6175"/>
<path d="M99.3716 17.1063L102.865 5.92065H105.899L109.402 17.1063H106.729L106.043 14.4431H102.631L101.945 17.1063H99.3716ZM103.416 11.4458L103.145 12.475H105.529L105.267 11.4458C105.104 10.886 104.951 10.2902 104.806 9.65824C104.662 9.02628 104.509 8.42141 104.364 7.84362H104.292C104.156 8.43946 104.012 9.04434 103.868 9.66727C103.732 10.2902 103.579 10.886 103.416 11.4458Z" fill="#5F6175"/>
<path d="M115.117 17.3051C114.404 17.3051 113.736 17.1787 113.113 16.9349C112.481 16.6912 111.93 16.33 111.461 15.8425C110.982 15.364 110.612 14.7682 110.341 14.046C110.07 13.3327 109.926 12.5022 109.926 11.5633C109.926 10.6334 110.07 9.81183 110.359 9.08056C110.648 8.35832 111.027 7.73539 111.506 7.23885C111.984 6.73329 112.544 6.35411 113.185 6.0923C113.826 5.83049 114.503 5.69507 115.207 5.69507C115.929 5.69507 116.57 5.83952 117.148 6.12841C117.717 6.41731 118.195 6.76037 118.575 7.14857L117.229 8.78264C116.941 8.52083 116.643 8.30416 116.327 8.14165C116.011 7.97915 115.659 7.88887 115.252 7.88887C114.873 7.88887 114.521 7.97012 114.178 8.14165C113.844 8.30416 113.546 8.54791 113.302 8.85486C113.058 9.16182 112.86 9.54099 112.715 9.98336C112.571 10.4257 112.499 10.9313 112.499 11.491C112.499 12.6466 112.743 13.5404 113.239 14.1723C113.727 14.8043 114.386 15.1203 115.216 15.1203C115.677 15.1203 116.083 15.021 116.444 14.8224C116.805 14.6237 117.121 14.371 117.392 14.073L118.728 15.6529C117.798 16.7634 116.588 17.3051 115.117 17.3051Z" fill="#5F6175"/>
<path d="M120.434 17.1063V5.92065H122.953V10.4978H123.025L126.356 5.92065H129.137L125.752 10.3805L129.751 17.1063H126.988L124.262 12.3937L122.962 14.109V17.1063H120.434Z" fill="#5F6175"/>
<path d="M130.97 17.1063V5.92065H137.966V8.05126H133.489V10.2992H137.298V12.4118H133.489V14.9848H138.138V17.1154H130.97V17.1063Z" fill="#5F6175"/>
<path d="M140.368 17.1063V5.92065H144.404C145 5.92065 145.559 5.97482 146.074 6.09219C146.597 6.20955 147.049 6.39914 147.437 6.66998C147.825 6.94082 148.132 7.29291 148.367 7.74431C148.593 8.18668 148.71 8.74641 148.71 9.40546C148.71 10.227 148.529 10.9041 148.168 11.4368C147.807 11.9694 147.329 12.3666 146.715 12.6284L149.252 17.1063H146.426L144.277 13.0798H142.887V17.1063H140.368ZM142.887 11.0666H144.187C144.846 11.0666 145.352 10.9312 145.704 10.6423C146.056 10.3624 146.227 9.94714 146.227 9.39643C146.227 8.84572 146.056 8.46655 145.704 8.24988C145.352 8.0332 144.846 7.92487 144.187 7.92487H142.887V11.0666Z" fill="#5F6175"/>
<path d="M154.054 17.3051C153.323 17.3051 152.592 17.1697 151.869 16.8988C151.147 16.628 150.497 16.2307 149.919 15.6891L151.364 13.9557C151.761 14.2988 152.204 14.5786 152.691 14.7953C153.179 15.012 153.657 15.1203 154.126 15.1203C154.65 15.1203 155.047 15.021 155.3 14.8314C155.562 14.6328 155.688 14.371 155.688 14.046C155.688 13.8744 155.652 13.73 155.58 13.6036C155.508 13.4772 155.399 13.3689 155.255 13.2696C155.111 13.1703 154.939 13.08 154.74 12.9987C154.542 12.9084 154.316 12.8182 154.081 12.7189L152.628 12.105C152.339 11.9876 152.068 11.8431 151.797 11.6626C151.526 11.482 151.292 11.2654 151.075 11.0216C150.867 10.7778 150.696 10.4889 150.569 10.1639C150.443 9.83893 150.38 9.46878 150.38 9.0535C150.38 8.59307 150.479 8.16875 150.669 7.76249C150.867 7.35623 151.138 7.00414 151.49 6.69719C151.842 6.39024 152.267 6.15551 152.754 5.98398C153.242 5.81245 153.774 5.72217 154.361 5.72217C155.011 5.72217 155.652 5.84856 156.293 6.10134C156.925 6.35413 157.485 6.71525 157.963 7.20276L156.663 8.78266C156.293 8.49376 155.932 8.27709 155.562 8.12361C155.192 7.97014 154.795 7.88888 154.343 7.88888C153.91 7.88888 153.567 7.97916 153.305 8.1507C153.052 8.33126 152.917 8.57501 152.917 8.90002C152.917 9.07155 152.962 9.216 153.043 9.33336C153.124 9.45073 153.251 9.55906 153.404 9.65837C153.558 9.75768 153.738 9.84796 153.946 9.92921C154.154 10.0195 154.379 10.1098 154.614 10.2091L156.058 10.7959C156.745 11.0667 157.286 11.4459 157.684 11.9244C158.081 12.4029 158.279 13.0439 158.279 13.8293C158.279 14.2988 158.189 14.7411 157.999 15.1564C157.81 15.5717 157.539 15.9418 157.178 16.2578C156.817 16.5738 156.374 16.8266 155.851 17.0162C155.309 17.2148 154.713 17.3051 154.054 17.3051Z" fill="#5F6175"/>
</svg>
