<svg width="157" height="25" viewBox="0 0 157 25" fill="none" xmlns="http://www.w3.org/2000/svg">
<path d="M29.3379 8.63928H44.0198V0.917969H29.3379V8.63928Z" fill="#5F6175"/>
<path d="M0 0.917969V8.63928H7.32786V24.0819H14.6557V8.63928H22.0098V0.917969H0Z" fill="#5F6175"/>
<path d="M22.0098 24.082H44.0195V16.3607H29.3376V8.6394H22.0098V24.082Z" fill="#5F6175"/>
<path d="M62.7317 6.74951H51.9492V9.96222H55.5608V20.0323H59.1201V9.96222H62.7317V6.74951Z" fill="#5F6175"/>
<path d="M66.7881 9.85425C64.2495 9.85425 62.3652 11.6091 62.3652 15.0648C62.3652 18.1155 63.9617 20.2483 66.8666 20.2483C68.3846 20.2483 69.6146 19.8434 70.7923 19.1144L69.5361 16.9276C68.5678 17.4406 67.8873 17.6295 67.0237 17.6295C66.1339 17.6295 65.5057 17.1436 65.3749 16.0367H71.054C71.0802 15.8747 71.0802 15.6587 71.0802 15.3618C71.1063 11.6631 69.4576 9.85425 66.7881 9.85425ZM65.4272 13.9039C65.5319 12.905 65.9507 12.392 66.7096 12.392C67.6779 12.392 68.0182 12.905 68.1752 13.9039H65.4272Z" fill="#5F6175"/>
<path d="M77.3871 17.4676C76.4973 17.4676 76.0263 16.6576 76.0263 15.0648C76.0263 13.4989 76.445 12.608 77.3086 12.608C78.0152 12.608 78.3293 13.013 78.8004 13.9039L81.0772 12.122C80.2398 10.7182 79.1929 9.85425 77.361 9.85425C74.2728 9.85425 72.7549 11.9601 72.7549 15.0108C72.7549 18.3585 74.456 20.2213 77.2825 20.2213C78.9836 20.2213 80.0304 19.5464 81.1558 17.8455L79.0621 16.1447C78.434 17.1166 78.0152 17.4676 77.3871 17.4676Z" fill="#5F6175"/>
<path d="M88.7981 9.85439C87.6466 9.85439 86.9662 10.2594 86.3642 10.7183V6.20972L83.0405 7.5866V20.0595H86.3642V14.363C86.3642 13.1211 86.783 12.7701 87.4896 12.7701C88.17 12.7701 88.5888 13.1211 88.5888 14.39V20.0595H91.9125V13.958C91.9125 11.3393 90.8918 9.85439 88.7981 9.85439Z" fill="#5F6175"/>
<path d="M99.8946 17.0355C98.3505 17.0355 97.7224 15.4157 97.7224 13.3908C97.7224 11.285 98.3767 9.74616 99.8684 9.74616C101.046 9.74616 101.491 10.5291 101.936 11.771L105.181 10.4481C104.291 7.93732 103.035 6.53345 99.8684 6.53345C96.4139 6.53345 93.98 9.12521 93.98 13.3908C93.98 17.3325 96.0213 20.2482 99.8423 20.2482C102.904 20.2482 104.344 18.5474 105.207 16.8195L102.198 15.1727C101.491 16.4146 101.02 17.0355 99.8946 17.0355Z" fill="#5F6175"/>
<path d="M110.546 10.7992V10.0702H107.223V20.0323H110.546V14.6058C110.546 13.3909 111.044 12.986 111.855 12.986C112.509 12.986 112.98 13.3369 113.399 13.8229L114.184 10.2862C113.792 10.0432 113.32 9.85425 112.614 9.85425C111.75 9.85425 111.096 10.2322 110.546 10.7992Z" fill="#5F6175"/>
<path d="M121.276 15.7666C121.276 17.0084 120.857 17.3594 120.177 17.3594C119.496 17.3594 119.078 17.0084 119.078 15.7396V10.0701H115.754V16.1715C115.754 18.7903 116.775 20.2482 118.894 20.2482C120.02 20.2482 120.726 19.8432 121.302 19.3842V20.0592H124.626V10.0971H121.302V15.7666" fill="#5F6175"/>
<path d="M132.765 9.85425C131.613 9.85425 130.933 10.2592 130.331 10.7182V10.0432H127.007V20.0053H130.331V14.3088C130.331 13.067 130.75 12.716 131.456 12.716C132.137 12.716 132.556 13.067 132.556 14.3358V20.0053H135.879V13.9039C135.879 11.3391 134.885 9.85425 132.765 9.85425Z" fill="#5F6175"/>
<path d="M142.474 17.4676C141.585 17.4676 141.113 16.6576 141.113 15.0648C141.113 13.4989 141.532 12.608 142.37 12.608C143.076 12.608 143.39 13.013 143.861 13.9039L146.138 12.122C145.301 10.7182 144.254 9.85425 142.422 9.85425C139.334 9.85425 137.816 11.9601 137.816 15.0108C137.816 18.3585 139.517 20.2213 142.344 20.2213C144.045 20.2213 145.091 19.5464 146.217 17.8455L144.123 16.1447C143.547 17.1166 143.102 17.4676 142.474 17.4676Z" fill="#5F6175"/>
<path d="M153.885 9.85439C152.734 9.85439 152.053 10.2594 151.451 10.7183V6.20972L148.127 7.5866V20.0595H151.451V14.363C151.451 13.1211 151.87 12.7701 152.577 12.7701C153.257 12.7701 153.676 13.1211 153.676 14.39V20.0595H156.999V13.958C157.026 11.3393 156.005 9.85439 153.885 9.85439Z" fill="#5F6175"/>
</svg>
