<svg width="167" height="27" viewBox="0 0 167 27" fill="none" xmlns="http://www.w3.org/2000/svg">
<path d="M45.6928 20.9124V14.1195H39.7464V20.9124H36.5977V5.69531H39.7464V11.4972H45.6928V5.69531H48.8518V20.9124H45.6928ZM52.1477 10.8778C52.9254 9.8867 54.2606 9.39118 56.1532 9.39118C57.3853 9.39118 58.4795 9.63555 59.4358 10.1241C60.3929 10.6128 60.8714 11.5351 60.8714 12.8909V18.0528C60.8714 18.4106 60.8779 18.8442 60.8918 19.3535C60.9122 19.7389 60.9713 20.0005 61.0676 20.1381C61.1639 20.2758 61.3083 20.3893 61.5009 20.4788V20.9124H58.3008C58.211 20.6852 58.149 20.4719 58.1148 20.2723C58.0805 20.0727 58.0528 19.8456 58.0323 19.591C57.626 20.0314 57.1584 20.4065 56.6281 20.7162C55.995 21.081 55.2794 21.2634 54.4808 21.2634C53.4622 21.2634 52.6191 20.9743 51.9515 20.3962C51.2908 19.8112 50.9605 18.9853 50.9605 17.9185C50.9605 16.5351 51.4938 15.5337 52.5606 14.9143C53.1456 14.5771 54.0059 14.3363 55.1416 14.1917L56.143 14.0678C56.6865 13.999 57.0753 13.9129 57.3094 13.8097C57.7296 13.6308 57.939 13.3521 57.939 12.9735C57.939 12.5124 57.7778 12.1958 57.4539 12.0237C57.1373 11.8448 56.6697 11.7553 56.0497 11.7553C55.3552 11.7553 54.8628 11.9274 54.5738 12.2715C54.3672 12.5262 54.2296 12.8703 54.1608 13.3038H51.3218C51.3837 12.3197 51.659 11.511 52.1477 10.8778ZM54.3363 18.7857C54.6116 19.0128 54.9488 19.1264 55.3479 19.1264C55.9811 19.1264 56.5625 18.9406 57.0928 18.5689C57.6297 18.1973 57.9083 17.5193 57.9288 16.5351V15.4409C57.7427 15.5579 57.5538 15.6542 57.3612 15.7299C57.1752 15.7987 56.917 15.8641 56.5865 15.926L55.9264 16.05C55.3064 16.16 54.8628 16.2943 54.5944 16.4526C54.1402 16.721 53.913 17.1374 53.913 17.7017C53.913 18.2041 54.0541 18.5655 54.3363 18.7857ZM73.2933 13.6962H70.2785C70.2238 13.2763 70.0822 12.8978 69.8554 12.5605C69.5249 12.1063 69.0121 11.8792 68.317 11.8792C67.3264 11.8792 66.648 12.3713 66.2832 13.3555C66.0907 13.8785 65.9944 14.5737 65.9944 15.4409C65.9944 16.2668 66.0907 16.9309 66.2832 17.4333C66.6341 18.3693 67.295 18.8373 68.2652 18.8373C68.9538 18.8373 69.4425 18.6515 69.7314 18.2798C70.0202 17.9082 70.196 17.4265 70.258 16.8346H73.262C73.1934 17.7293 72.8695 18.5758 72.2918 19.3742C71.3697 20.6612 70.0035 21.3047 68.193 21.3047C66.3832 21.3047 65.0512 20.7679 64.1977 19.6942C63.3442 18.6205 62.9175 17.2269 62.9175 15.5131C62.9175 13.5791 63.3895 12.0754 64.3319 11.0017C65.2751 9.92799 66.5757 9.39118 68.2345 9.39118C69.6453 9.39118 70.7986 9.70777 71.6929 10.3409C72.5945 10.9742 73.1277 12.0925 73.2933 13.6962ZM85.7153 20.9124H82.1635L79.4696 16.1015L78.2514 17.3714V20.9124H75.3606V5.74696H78.2514V13.9439L81.9162 9.7112H85.5599L81.6266 14.0162L85.7153 20.9124ZM96.857 17.6088C96.7811 18.2764 96.4339 18.9543 95.8146 19.6425C94.851 20.7369 93.5015 21.284 91.7676 21.284C90.3356 21.284 89.0729 20.8229 87.9788 19.9007C86.8846 18.9784 86.3375 17.478 86.3375 15.3996C86.3375 13.4519 86.8291 11.9584 87.8132 10.9191C88.8045 9.87985 90.0884 9.36025 91.664 9.36025C92.5999 9.36025 93.4431 9.53569 94.1937 9.8867C94.9436 10.2377 95.5629 10.7917 96.0517 11.5488C96.4923 12.2164 96.7775 12.9907 96.9088 13.8717C96.9839 14.3878 97.0153 15.1311 97.0014 16.1015H89.2998C89.3414 17.2303 89.6959 18.0218 90.3634 18.476C90.7697 18.7582 91.2584 18.8993 91.8296 18.8993C92.435 18.8993 92.9274 18.7272 93.3053 18.3831C93.5124 18.1973 93.6948 17.9392 93.8531 17.6088H96.857ZM93.9457 14.1607C93.8976 13.383 93.6598 12.7945 93.233 12.3954C92.8136 11.9893 92.2906 11.7863 91.664 11.7863C90.9827 11.7863 90.4531 11.9997 90.0745 12.4263C89.7025 12.853 89.4683 13.4312 89.372 14.1607H93.9457ZM104.716 12.3747C103.532 12.3747 102.737 12.7601 102.331 13.531C102.104 13.9646 101.99 14.6322 101.99 15.5337V20.9124H99.0279V9.65962H101.836V11.6211C102.29 10.8709 102.685 10.3582 103.023 10.0829C103.573 9.62176 104.289 9.39118 105.17 9.39118C105.225 9.39118 105.27 9.39461 105.304 9.40154C105.346 9.40154 105.432 9.40497 105.562 9.41183V12.4263C105.376 12.4057 105.211 12.392 105.067 12.385C104.923 12.3782 104.805 12.3747 104.716 12.3747ZM125.854 20.9124H122.674L116.459 10.1035V20.9124H113.496V5.69531H116.831L122.891 16.3183V5.69531H125.854V20.9124ZM138.286 17.6088C138.21 18.2764 137.863 18.9543 137.243 19.6425C136.28 20.7369 134.931 21.284 133.196 21.284C131.764 21.284 130.502 20.8229 129.408 19.9007C128.313 18.9784 127.766 17.478 127.766 15.3996C127.766 13.4519 128.258 11.9584 129.243 10.9191C130.233 9.87985 131.517 9.36025 133.093 9.36025C134.029 9.36025 134.872 9.53569 135.623 9.8867C136.372 10.2377 136.992 10.7917 137.481 11.5488C137.921 12.2164 138.207 12.9907 138.338 13.8717C138.413 14.3878 138.444 15.1311 138.43 16.1015H130.729C130.77 17.2303 131.125 18.0218 131.792 18.476C132.198 18.7582 132.687 18.8993 133.258 18.8993C133.864 18.8993 134.356 18.7272 134.735 18.3831C134.941 18.1973 135.124 17.9392 135.282 17.6088H138.286ZM135.375 14.1607C135.326 13.383 135.089 12.7945 134.663 12.3954C134.242 11.9893 133.719 11.7863 133.093 11.7863C132.412 11.7863 131.882 11.9997 131.503 12.4263C131.131 12.853 130.898 13.4312 130.802 14.1607H135.375ZM149.025 20.9124L147.26 12.7154L145.474 20.9124H142.418L139.259 9.65962H142.418L144.173 17.7327L145.794 9.65962H148.778L150.491 17.7637L152.246 9.65962H155.312L152.05 20.9124H149.025ZM164.761 10.1758C165.642 10.7402 166.147 11.7106 166.279 13.0871H163.336C163.295 12.7085 163.188 12.4092 163.017 12.1889C162.693 11.7897 162.142 11.5901 161.364 11.5901C160.725 11.5901 160.267 11.6899 159.992 11.8895C159.723 12.0891 159.589 12.3231 159.589 12.5915C159.589 12.9288 159.733 13.1731 160.022 13.3245C160.312 13.4828 161.334 13.7547 163.089 14.1401C164.259 14.4154 165.136 14.8318 165.721 15.3892C166.299 15.9536 166.588 16.6591 166.588 17.5056C166.588 18.6205 166.172 19.5325 165.339 20.2414C164.513 20.9434 163.233 21.2943 161.499 21.2943C159.73 21.2943 158.423 20.9227 157.576 20.1794C156.736 19.4293 156.317 18.476 156.317 17.3197H159.3C159.362 17.8428 159.496 18.2145 159.703 18.4347C160.067 18.827 160.741 19.0232 161.725 19.0232C162.304 19.0232 162.761 18.9372 163.099 18.7651C163.443 18.593 163.615 18.3349 163.615 17.9908C163.615 17.6605 163.478 17.4092 163.202 17.2372C162.927 17.0651 161.905 16.7691 160.136 16.3493C158.862 16.0327 157.964 15.637 157.441 15.1621C156.918 14.6941 156.657 14.0196 156.657 13.1387C156.657 12.0994 157.063 11.2082 157.875 10.4649C158.694 9.7147 159.843 9.33954 161.323 9.33954C162.727 9.33954 163.873 9.61834 164.761 10.1758Z" fill="#5F6175"/>
<g clip-path="url(#clip0_3288_320)">
<path d="M27 0H0V27H27V0Z" fill="#5F6175"/>
<path d="M12.5904 15.2661L7.95605 6.58447H10.074L12.8001 12.0786C12.8421 12.1765 12.891 12.2778 12.9469 12.3827C13.0028 12.4875 13.0518 12.5959 13.0937 12.7077C13.1217 12.7497 13.1426 12.7881 13.1566 12.823C13.1706 12.858 13.1846 12.8895 13.1986 12.9174C13.2685 13.0572 13.3314 13.1935 13.3873 13.3263C13.4432 13.4591 13.4921 13.5815 13.5341 13.6933C13.6459 13.4556 13.7682 13.2005 13.9011 12.9279C14.0339 12.6553 14.1702 12.3722 14.31 12.0786L17.078 6.58447H19.0492L14.3729 15.3709V20.9699H12.5904V15.2661Z" fill="black"/>
</g>
<defs>
<clipPath id="clip0_3288_320">
<rect width="27" height="27" fill="white"/>
</clipPath>
</defs>
</svg>
