<svg width="170" height="27" viewBox="0 0 170 27" fill="none" xmlns="http://www.w3.org/2000/svg">
<path d="M27 13.5C27 20.9587 20.9587 27 13.5 27C6.04125 27 0 20.9587 0 13.5C0 6.04125 6.04125 0 13.5 0C20.9587 0 27 6.04125 27 13.5Z" fill="#5F6175"/>
<path d="M15.2999 13.5H11.4749V9.45H15.2999C16.4137 9.45 17.3249 10.3612 17.3249 11.475C17.3249 12.5887 16.4137 13.5 15.2999 13.5ZM15.2999 6.75H8.7749V20.25H11.4749V16.2H15.2999C17.9099 16.2 20.0249 14.085 20.0249 11.475C20.0249 8.865 17.9099 6.75 15.2999 6.75Z" fill="black"/>
<path d="M46.6094 10.7473C46.6094 9.51476 45.6569 8.76774 44.4243 8.76774H41.1188V12.7082H44.4243C45.6569 12.7082 46.6094 11.9612 46.6094 10.7473ZM38 20.9628V6.02246H44.8725C48.066 6.02246 49.8028 8.17013 49.8028 10.7473C49.8028 13.3059 48.0474 15.4535 44.8725 15.4535H41.1375V20.9628H38Z" fill="#5F6175"/>
<path d="M51.6885 20.9627V10.0749H54.4898V11.5129C55.2555 10.5978 56.5628 9.81348 57.8887 9.81348V12.5401C57.6833 12.5027 57.4405 12.4841 57.123 12.4841C56.1892 12.4841 54.9567 13.007 54.5085 13.698V20.9814H51.6885V20.9627Z" fill="#5F6175"/>
<path d="M67.283 15.3787C67.283 13.7353 66.3118 12.2973 64.5564 12.2973C62.8195 12.2973 61.8484 13.7353 61.8484 15.3787C61.8484 17.0595 62.8195 18.4789 64.5564 18.4789C66.3118 18.4789 67.283 17.0409 67.283 15.3787ZM58.9351 15.3787C58.9351 12.372 61.0454 9.81348 64.5377 9.81348C68.0673 9.81348 70.1776 12.372 70.1776 15.3787C70.1776 18.3855 68.0673 20.9627 64.5377 20.9627C61.0454 20.9627 58.9351 18.3855 58.9351 15.3787Z" fill="#5F6175"/>
<path d="M79.5902 17.265V13.5113C79.1234 12.8016 78.1149 12.2974 77.1998 12.2974C75.5937 12.2974 74.4919 13.5486 74.4919 15.3788C74.4919 17.2277 75.5937 18.4789 77.1998 18.4789C78.1149 18.4789 79.1234 17.9747 79.5902 17.265ZM79.5902 20.9628V19.338C78.7498 20.4025 77.6106 20.9628 76.3034 20.9628C73.6328 20.9628 71.5972 18.9458 71.5972 15.3788C71.5972 11.9239 73.5954 9.81356 76.3034 9.81356C77.5546 9.81356 78.7498 10.3365 79.5902 11.4383V6.02246H82.4102V20.9628H79.5902Z" fill="#5F6175"/>
<path d="M92.3452 20.9627V19.3566C91.6168 20.141 90.3469 20.9627 88.6101 20.9627C86.2757 20.9627 85.1738 19.6928 85.1738 17.6198V10.075H87.9751V16.518C87.9751 17.9933 88.7408 18.4789 89.9361 18.4789C91.0192 18.4789 91.8783 17.8813 92.3639 17.265V10.075H95.1652V20.9627H92.3452Z" fill="#5F6175"/>
<path d="M97.2383 15.3787C97.2383 12.1292 99.6101 9.81348 102.878 9.81348C105.063 9.81348 106.371 10.7659 107.08 11.737L105.25 13.4552C104.746 12.7082 103.98 12.316 103.009 12.316C101.31 12.316 100.133 13.5486 100.133 15.3974C100.133 17.2463 101.328 18.4975 103.009 18.4975C103.98 18.4975 104.746 18.0493 105.25 17.3397L107.08 19.0578C106.371 20.0289 105.063 21 102.878 21C99.6101 20.9627 97.2383 18.6469 97.2383 15.3787Z" fill="#5F6175"/>
<path d="M109.489 18.0307V12.5028H107.733V10.0563H109.489V7.16162H112.29V10.075H114.438V12.5215H112.29V17.3024C112.29 17.9933 112.645 18.4976 113.261 18.4976C113.672 18.4976 114.083 18.3482 114.232 18.1614L114.83 20.2904C114.419 20.6639 113.672 20.9814 112.496 20.9814C110.516 20.9627 109.489 19.9543 109.489 18.0307Z" fill="#5F6175"/>
<path d="M132.33 20.9628V14.5198H125.401V20.9628H122.282V6.02246H125.401V11.7932H132.33V6.02246H135.486V20.9628H132.33Z" fill="#5F6175"/>
<path d="M145.477 20.9627V19.3566C144.749 20.141 143.479 20.9627 141.742 20.9627C139.408 20.9627 138.306 19.6928 138.306 17.6198V10.075H141.107V16.518C141.107 17.9933 141.873 18.4789 143.068 18.4789C144.151 18.4789 145.01 17.8813 145.496 17.265V10.075H148.297V20.9627H145.477Z" fill="#5F6175"/>
<path d="M158.213 20.9627V14.2769C158.213 12.8015 157.448 12.2973 156.253 12.2973C155.151 12.2973 154.31 12.9136 153.825 13.5299V20.9627H151.023V10.0749H153.825V11.4382C154.516 10.6539 155.823 9.81348 157.541 9.81348C159.894 9.81348 161.015 11.1394 161.015 13.1937V20.9627H158.213Z" fill="#5F6175"/>
<path d="M164.376 18.0307V12.5028H162.621V10.0563H164.376V7.16162H167.177V10.075H169.325V12.5215H167.177V17.3024C167.177 17.9933 167.532 18.4976 168.149 18.4976C168.559 18.4976 168.97 18.3482 169.12 18.1614L169.717 20.2904C169.306 20.6639 168.559 20.9814 167.383 20.9814C165.403 20.9627 164.376 19.9543 164.376 18.0307Z" fill="#5F6175"/>
</svg>
