<svg width="154" height="155" viewBox="0 0 154 155" fill="none" xmlns="http://www.w3.org/2000/svg">
<rect width="154" height="155" fill="#99FFB8"/>
<path d="M40 100.5V53.5L69 44L121 65L102 109.5L40 100.5Z" fill="white" stroke="white"/>
<g clip-path="url(#clip0_3314_1482)">
<path d="M77 26C48.8325 26 26 48.8325 26 77C26 105.167 48.8325 128 77 128C105.167 128 128 105.167 128 77C128 48.836 105.167 26.0035 77 26ZM100.389 99.5542C99.4741 101.058 97.5148 101.527 96.0184 100.612C84.0436 93.2936 68.9681 91.6405 51.2164 95.6948C49.5042 96.088 47.799 95.0162 47.4092 93.304C47.016 91.5918 48.0843 89.8866 49.8 89.4968C69.2256 85.0598 85.8915 86.9703 99.3349 95.1832C100.831 96.1054 101.308 98.0577 100.389 99.5542ZM106.629 85.6723C105.477 87.5445 103.027 88.1292 101.158 86.9808C87.454 78.5556 66.5529 76.1161 50.3394 81.0368C48.2375 81.6737 46.0172 80.487 45.3769 78.3885C44.7435 76.2866 45.9302 74.0698 48.0287 73.4295C66.5494 67.8092 89.5769 70.5306 105.317 80.2051C107.189 81.357 107.781 83.8035 106.629 85.6723ZM107.165 71.2092C90.7253 61.4477 63.6088 60.5498 47.9138 65.3105C45.3943 66.0762 42.7286 64.6528 41.9664 62.1333C41.2043 59.6137 42.6242 56.948 45.1472 56.1824C63.1634 50.7153 93.1091 51.7697 112.034 63.0033C114.299 64.3501 115.044 67.2768 113.701 69.5388C112.361 71.8078 109.427 72.556 107.165 71.2092Z" fill="#2EBD59"/>
</g>
<defs>
<clipPath id="clip0_3314_1482">
<rect width="102" height="102" fill="white" transform="translate(26 26)"/>
</clipPath>
</defs>
</svg>
